<svg height="512pt" viewBox="-11 0 512 512" width="512pt" xmlns="http://www.w3.org/2000/svg"><path d="m365.960938 233.679688c.851562 0 1.699218.011718 2.550781.027343l.21875.003907c4.777343.085937 9.515625.394531 14.207031.90625v-174.207032c0-33.308594-27.101562-60.410156-60.410156-60.410156h-262.113282c-33.3125 0-60.414062 27.101562-60.414062 60.410156v347.472656c0 33.3125 27.101562 60.414063 60.410156 60.414063h175c-15.101562-24.269531-23.023437-51.988281-23.023437-80.957031 0-84.730469 68.890625-153.660156 153.574219-153.660156zm-149.304688-135.042969h89.523438c8.285156 0 15 6.714843 15 15 0 8.285156-6.714844 15-15 15h-89.523438c-8.28125 0-15-6.714844-15-15 0-8.285157 6.71875-15 15-15zm0 60.003906h89.523438c8.285156 0 15 6.714844 15 15s-6.714844 15-15 15h-89.523438c-8.28125 0-15-6.714844-15-15s6.71875-15 15-15zm-50.375 211.015625h-89.523438c-8.285156 0-15-6.714844-15-15 0-8.28125 6.714844-15 15-15h89.523438c8.28125 0 15 6.71875 15 15 0 8.285156-6.71875 15-15 15zm0-61.007812h-89.523438c-8.285156 0-15-6.714844-15-15 0-8.285157 6.714844-15 15-15h89.523438c8.28125 0 15 6.714843 15 15 0 8.285156-6.71875 15-15 15zm0-60.003907h-89.523438c-8.285156 0-15-6.714843-15-15 0-8.285156 6.714844-15 15-15h89.523438c8.28125 0 15 6.714844 15 15 0 8.285157-6.71875 15-15 15zm0-60.003906h-89.523438c-8.285156 0-15-6.714844-15-15s6.714844-15 15-15h89.523438c8.28125 0 15 6.714844 15 15s-6.71875 15-15 15zm0-60.003906h-89.523438c-8.285156 0-15-6.714844-15-15 0-8.285157 6.714844-15 15-15h89.523438c8.28125 0 15 6.714843 15 15 0 8.285156-6.71875 15-15 15zm35.375 105.007812c0-8.285156 6.71875-15 15-15h43.117188c8.285156 0 15 6.714844 15 15 0 8.285157-6.714844 15-15 15h-43.117188c-8.28125 0-15-6.714843-15-15zm0 0"/><path d="m454.785156 299.941406c-23.023437-23.429687-53.773437-36.65625-86.582031-37.234375l-.214844-.003906c-.675781-.011719-1.351562-.023437-2.027343-.023437-68.691407 0-124.574219 55.921874-124.574219 124.660156 0 27.300781 8.664062 53.226562 25.050781 74.980468 23.785156 31.574219 60.058594 49.679688 99.523438 49.679688 68.691406 0 124.574218-55.921875 124.574218-124.660156 0-32.90625-12.695312-63.945313-35.75-87.398438zm-35.597656 67.132813-47.570312 59.300781c-2.957032 3.683594-7.308594 5.617188-11.710938 5.617188-3.058594 0-6.136719-.933594-8.792969-2.855469l-35.480469-25.707031c-6.707031-4.859376-8.207031-14.238282-3.34375-20.949219 4.859376-6.707031 14.238282-8.207031 20.945313-3.34375l23.917969 17.328125 38.636718-48.164063c5.183594-6.460937 14.621094-7.496093 21.085938-2.3125 6.460938 5.183594 7.496094 14.625 2.3125 21.085938zm0 0"/></svg>