<?xml version="1.0" encoding="iso-8859-1"?>
<!-- Generator: Adobe Illustrator 19.0.0, SVG Export Plug-In . SVG Version: 6.00 Build 0)  -->
<svg version="1.1" id="Capa_1" xmlns="http://www.w3.org/2000/svg" xmlns:xlink="http://www.w3.org/1999/xlink" x="0px" y="0px"
	 viewBox="0 0 468.293 468.293" style="enable-background:new 0 0 468.293 468.293;" xml:space="preserve">
<path style="fill:#2D93BA;" d="M453.613,243.398v55.547H23.383c-4.798,0-8.703-4.392-8.703-9.84v-59.208
	c0-5.449,3.905-9.841,8.703-9.841h27.326l35.052-72.87c4.392-9.353,13.095-15.208,22.528-15.208h194.377
	c8.782,0,16.996,5.124,21.714,13.5l25.293,45.057c10.248,18.38,28.222,29.522,47.496,29.522h33.101
	c7.807,0,14.802,3.904,19.031,9.841C451.986,233.719,453.613,238.355,453.613,243.398z"/>
<g>
	<polygon style="fill:#EBF0F3;" points="210.012,217.945 336.109,217.945 302.748,148.32 210.012,148.32 	"/>
	<polygon style="fill:#EBF0F3;" points="198.842,148.32 110.855,148.32 77.428,217.945 198.842,217.945 	"/>
</g>
<path style="fill:#E56353;" d="M31.437,245.187v20.089c0,7.076-5.106,12.85-11.363,12.85H14.68v-45.707h5.394
	C26.331,232.418,31.437,238.192,31.437,245.187z"/>
<path style="fill:#D5D6DB;" d="M468.293,285.149c0,7.641-6.438,13.796-14.362,13.796H14.433C6.439,298.945,0,292.79,0,285.149
	c0-7.641,6.439-13.867,14.433-13.867H453.93C461.854,271.282,468.293,277.508,468.293,285.149z"/>
<path style="fill:#2F4859;" d="M388.808,298.921c0,20.643-16.752,37.395-37.394,37.395c-20.643,0-37.348-16.752-37.348-37.395
	s16.704-37.347,37.348-37.347C372.056,261.574,388.808,278.278,388.808,298.921z"/>
<path style="fill:#64798A;" d="M376.339,298.929c0,13.755-11.162,24.917-24.917,24.917c-13.755,0-24.886-11.162-24.886-24.917
	s11.131-24.885,24.886-24.885C365.176,274.044,376.339,285.174,376.339,298.929z"/>
<path style="fill:#EBF0F3;" d="M357.778,297.285l17.107,10.087c-0.537,1.455-1.201,2.878-1.992,4.206l-15.81-9.296l4.964,19.194
	c-1.391,0.664-2.846,1.202-4.363,1.581l-4.617-17.771L343.01,322.36c-1.486-0.506-2.909-1.17-4.237-1.96l9.296-15.779l-19.162,4.933
	c-0.664-1.391-1.201-2.846-1.581-4.364l17.771-4.616l-17.076-10.055c0.506-1.486,1.17-2.909,1.961-4.237l15.779,9.328l-4.965-19.194
	c1.392-0.664,2.877-1.202,4.396-1.581l4.585,17.739l10.055-17.075c1.486,0.537,2.877,1.202,4.237,1.992l-9.329,15.81l19.194-4.996
	c0.696,1.391,1.234,2.877,1.613,4.395L357.778,297.285z"/>
<path style="fill:#2F4859;" d="M154.199,298.921c0,20.643-16.752,37.395-37.394,37.395c-20.643,0-37.348-16.752-37.348-37.395
	s16.704-37.347,37.348-37.347C137.447,261.574,154.199,278.278,154.199,298.921z"/>
<path style="fill:#64798A;" d="M141.729,298.929c0,13.755-11.162,24.917-24.917,24.917c-13.755,0-24.886-11.162-24.886-24.917
	s11.131-24.885,24.886-24.885C130.567,274.044,141.729,285.174,141.729,298.929z"/>
<g>
	<path style="fill:#EBF0F3;" d="M123.169,297.285l17.107,10.087c-0.537,1.455-1.201,2.878-1.992,4.206l-15.81-9.296l4.964,19.194
		c-1.391,0.664-2.846,1.202-4.363,1.581l-4.617-17.771l-10.056,17.075c-1.486-0.506-2.909-1.17-4.237-1.96l9.296-15.779
		l-19.162,4.933c-0.664-1.391-1.201-2.846-1.581-4.364l17.771-4.616l-17.076-10.055c0.506-1.486,1.17-2.909,1.961-4.237
		l15.779,9.328l-4.965-19.194c1.392-0.664,2.877-1.202,4.396-1.581l4.585,17.739l10.055-17.075c1.486,0.537,2.877,1.202,4.237,1.992
		l-9.329,15.81l19.194-4.996c0.696,1.391,1.234,2.877,1.613,4.395L123.169,297.285z"/>
	<path style="fill:#EBF0F3;" d="M453.613,243.398v7.564H441.82c-11.63,0-21.144-9.434-21.144-21.064h28.627
		C451.986,233.719,453.613,238.355,453.613,243.398z"/>
</g>
<g>
	<path style="fill:#FFFFFF;" d="M247.966,176.091c0,0.515-0.206,1.03-0.566,1.39l-10.504,10.505
		c-0.824,0.875-2.266,0.772-3.245-0.206c-0.514-0.515-0.772-1.184-0.772-1.802c0-0.515,0.206-1.03,0.566-1.39l10.504-10.504
		c0.825-0.875,2.266-0.773,3.245,0.206C247.708,174.804,247.966,175.474,247.966,176.091z"/>
	<path style="fill:#FFFFFF;" d="M245.649,166.205l-20.031,20.031c-0.876,0.875-2.318,0.773-3.244-0.206
		c-0.515-0.515-0.772-1.133-0.772-1.751c0-0.566,0.206-1.081,0.566-1.442l20.031-20.082c0.823-0.824,2.265-0.721,3.243,0.206v0.052
		C246.37,163.939,246.472,165.381,245.649,166.205z"/>
	<path style="fill:#FFFFFF;" d="M148.338,176.967c0,0.515-0.206,1.03-0.566,1.39l-10.504,10.505
		c-0.824,0.875-2.266,0.772-3.245-0.206c-0.514-0.515-0.772-1.184-0.772-1.802c0-0.515,0.206-1.03,0.566-1.39l10.504-10.504
		c0.825-0.875,2.266-0.773,3.245,0.206C148.08,175.68,148.338,176.349,148.338,176.967z"/>
	<path style="fill:#FFFFFF;" d="M146.021,167.08l-20.031,20.031c-0.876,0.875-2.318,0.773-3.244-0.206
		c-0.515-0.515-0.772-1.133-0.772-1.751c0-0.566,0.206-1.081,0.566-1.442l20.031-20.082c0.823-0.824,2.265-0.721,3.243,0.206v0.052
		C146.742,164.814,146.844,166.256,146.021,167.08z"/>
</g>
<g>
</g>
<g>
</g>
<g>
</g>
<g>
</g>
<g>
</g>
<g>
</g>
<g>
</g>
<g>
</g>
<g>
</g>
<g>
</g>
<g>
</g>
<g>
</g>
<g>
</g>
<g>
</g>
<g>
</g>
</svg>
