<?xml version="1.0" encoding="iso-8859-1"?>
<!-- Generator: Adobe Illustrator 19.0.0, SVG Export Plug-In . SVG Version: 6.00 Build 0)  -->
<svg version="1.1" id="Layer_1" xmlns="http://www.w3.org/2000/svg" xmlns:xlink="http://www.w3.org/1999/xlink" x="0px" y="0px"
	 viewBox="0 0 511.99 511.99" style="enable-background:new 0 0 511.99 511.99;" xml:space="preserve">
<path style="fill:#656D78;" d="M74.428,218.555c0,0,39.507-74.67,149.567-74.67s149.357,74.702,149.357,74.702
	c127.981,0,127.981,0,127.981,117.286H53.335c-19.703,0.156-42.671-21.094-42.671-21.094v-74.896l21.335-21.328L74.428,218.555
	L74.428,218.555z"/>
<path style="fill:#4FC2E9;" d="M366.259,207.93c-15.609-20.64-58.358-64.045-142.263-64.045
	c-83.944,0-126.841,43.421-142.474,64.045H366.259z"/>
<rect x="191.995" y="148.405" style="fill:#3BAFDA;" width="21.336" height="59.53"/>
<path style="fill:#656D78;" d="M53.132,346.559c-23.164,0-47.062-21.5-49.71-23.938C1.242,320.59,0,317.746,0,314.777v-74.896
	c0-2.828,1.125-5.547,3.125-7.547l21.335-21.328c2-2,4.711-3.125,7.539-3.125h36.468c4.977-7.5,15.484-21.312,32.859-35.046
	c22.89-18.077,62.757-39.624,122.669-39.624c59.921,0,99.732,21.578,122.576,39.655c17.328,13.734,27.797,27.547,32.75,35.062
	c62.701,0.016,94.732,0.516,113.217,17.453c19.452,17.844,19.452,48.804,19.452,110.49c0,5.906-4.781,10.656-10.656,10.656
	L53.132,346.559z M21.335,309.872c7.297,5.844,21.289,15.344,31.789,15.344h0.125c0.031,0,0.055,0,0.086,0h437.312
	c-0.047-46.998-0.844-73.396-12.531-84.099c-12.938-11.859-45.562-11.859-104.764-11.859c-3.953,0-7.609-2.203-9.453-5.703
	c-0.062-0.141-9.516-17.53-31.406-34.608c-29.249-22.828-65.748-34.39-108.498-34.39c-42.757,0-79.303,11.562-108.615,34.374
	c-21.945,17.078-31.452,34.468-31.546,34.64c-1.844,3.5-5.453,5.641-9.406,5.641H36.421l-15.086,15.092V309.872z"/>
<g>
	<path style="fill:#434A54;" d="M117.333,272.124c-29.413,0-53.335,23.906-53.335,53.311c0,29.438,23.922,53.344,53.335,53.344
		c29.406,0,53.327-23.906,53.327-53.344C170.661,296.03,146.739,272.124,117.333,272.124z"/>
	<path style="fill:#434A54;" d="M394.648,272.124c-29.405,0-53.312,23.906-53.312,53.311c0,29.438,23.906,53.344,53.312,53.344
		c29.421,0,53.343-23.906,53.343-53.344C447.991,296.03,424.069,272.124,394.648,272.124z"/>
</g>
<g>
	<path style="fill:#F5F7FA;" d="M106.662,325.434c0,5.906,4.781,10.688,10.671,10.688c5.891,0,10.664-4.781,10.664-10.688
		c0-5.875-4.773-10.656-10.664-10.656C111.443,314.778,106.662,319.559,106.662,325.434z"/>
	<path style="fill:#F5F7FA;" d="M383.993,325.434c0,5.906,4.781,10.688,10.655,10.688c5.906,0,10.688-4.781,10.688-10.688
		c0-5.875-4.781-10.656-10.688-10.656C388.774,314.778,383.993,319.559,383.993,325.434z"/>
</g>
<path style="fill:#434A54;" d="M245.331,271.882h-21.336c-5.891,0-10.664-4.781-10.664-10.672c0-5.89,4.773-10.656,10.664-10.656
	h21.335c5.891,0,10.664,4.766,10.664,10.656C255.995,267.1,251.222,271.882,245.331,271.882z"/>
<path style="fill:#F5F7FA;" d="M509.053,260.866c-1.312-8.14-3.219-15.046-6-20.984h-33.874c-5.891,0-10.656,4.781-10.656,10.672
	c0,5.891,4.766,10.656,10.656,10.656h37.249C507.334,261.21,508.209,261.085,509.053,260.866z"/>
<path style="fill:#ED5564;" d="M31.999,207.883c-2.828,0-5.539,1.125-7.539,3.125L3.125,232.335c-2,2-3.125,4.719-3.125,7.547h32
	c5.891,0,10.664-4.781,10.664-10.672v-21.328H31.999V207.883z"/>
<g>
</g>
<g>
</g>
<g>
</g>
<g>
</g>
<g>
</g>
<g>
</g>
<g>
</g>
<g>
</g>
<g>
</g>
<g>
</g>
<g>
</g>
<g>
</g>
<g>
</g>
<g>
</g>
<g>
</g>
</svg>
