<svg id="Layer_3" height="512" viewBox="0 0 64 64" width="512" xmlns="http://www.w3.org/2000/svg" data-name="Layer 3"><path d="m9 58v-39a11 11 0 0 1 11-11h24a11 11 0 0 1 11 11v39z" fill="#c1c8d1"/><path d="m24 32h16a8 8 0 0 1 8 8v18a0 0 0 0 1 0 0h-32a0 0 0 0 1 0 0v-18a8 8 0 0 1 8-8z" fill="#f7d881"/><path d="m40 32-24 24v2h5l24.13-24.13a7.92 7.92 0 0 0 -5.13-1.87z" fill="#a0a8b2"/><path d="m42 15v4a10 10 0 0 1 -10 10 10 10 0 0 1 -10-10v-4h7.39a6.75 6.75 0 0 0 5.61-3 6.75 6.75 0 0 0 5.61 3z" fill="#fcd4a5"/><path d="m32 2a10 10 0 0 0 -10 10v3h7.39a6.75 6.75 0 0 0 5.61-3 6.75 6.75 0 0 0 5.61 3h1.39v-3a10 10 0 0 0 -10-10z" fill="#c18e5c"/><g fill="#fcd4a5"><path d="m22 19v-3h-1a3 3 0 0 0 0 6h1.46a9.91 9.91 0 0 1 -.46-3z"/><path d="m43 16h-1v3a9.91 9.91 0 0 1 -.46 3h1.46a3 3 0 0 0 0-6z"/><path d="m32 29a9.92 9.92 0 0 1 -4-.84v3.84l4 5 4-5v-3.84a9.92 9.92 0 0 1 -4 .84z"/></g><path d="m19 58a13 13 0 0 1 26 0h4a17 17 0 0 0 -34 0z" fill="#88929f"/><path d="m39.56 47.44-7.56 7.56-7.56-7.56a12.94 12.94 0 0 0 -3 3l7.56 7.56h6l7.56-7.56a12.94 12.94 0 0 0 -3-3z" fill="#c1c8d1"/><path d="m2 58h60v4h-60z" fill="#a0a8b2"/><path d="m62 57h-6v-38a12 12 0 0 0 -12-12h-2.21a11 11 0 0 0 -19.58 0h-2.21a12 12 0 0 0 -12 12v38h-6a1 1 0 0 0 -1 1v4a1 1 0 0 0 1 1h60a1 1 0 0 0 1-1v-4a1 1 0 0 0 -1-1zm-18-48a10 10 0 0 1 10 10v38h-4a17.83 17.83 0 0 0 -1-4.86v-12.14a9 9 0 0 0 -9-9h-3v-2.21a11.08 11.08 0 0 0 5.24-5.79h.76a4 4 0 0 0 0-8v-3a10.66 10.66 0 0 0 -.43-3zm-22.39 43 5 5h-6.56a11.93 11.93 0 0 1 1.56-5zm7.8 5-6.65-6.65a11.94 11.94 0 0 1 1.59-1.59l6.94 7a1 1 0 0 0 1.42 0l6.94-7a11.94 11.94 0 0 1 1.59 1.59l-6.65 6.65zm4.79-10.79a11.86 11.86 0 0 1 3.8 1.4l-6 6-2.59-2.61zm-6.2 3.38-2-2a11.89 11.89 0 0 1 5.56-1.59zm14.39 2.41a11.93 11.93 0 0 1 1.61 5h-6.59zm3.61 5a14 14 0 0 0 -27.9 0h-2a16 16 0 0 1 31.9 0zm-29-17a7 7 0 0 1 7-7h3.52l3.7 4.63a1 1 0 0 0 1.56 0l3.7-4.63h1.11l-7.08 7.08a18 18 0 0 0 -13.51 8zm4.19-19h-.19a2 2 0 0 1 0-4v2a11 11 0 0 0 .19 2zm1.81-5h6.39a7.73 7.73 0 0 0 5.61-2.4 7.73 7.73 0 0 0 5.61 2.4h.39v3a9 9 0 0 1 -18 0zm9 14a10.66 10.66 0 0 0 3-.43v2.08l-3 3.75-3-3.75v-2.08a10.66 10.66 0 0 0 3 .43zm15 18.07a18.1 18.1 0 0 0 -8-6.65l6.14-6.15a7 7 0 0 1 1.86 4.73zm-10.11-7.38a18 18 0 0 0 -3.54-.62l7-7a7 7 0 0 1 3.2 1zm6.11-21.69v-2a2 2 0 0 1 0 4h-.19a11 11 0 0 0 .19-2zm-11-16a9 9 0 0 1 9 9v2h-.39a5.75 5.75 0 0 1 -4.78-2.55 1 1 0 0 0 -1.66 0 5.75 5.75 0 0 1 -4.78 2.55h-6.39v-2a9 9 0 0 1 9-9zm-22 16a10 10 0 0 1 10-10h1.43a10.66 10.66 0 0 0 -.43 3v3a4 4 0 0 0 0 8h.76a11.08 11.08 0 0 0 5.24 5.79v2.21h-3a9 9 0 0 0 -9 9v12.14a17.76 17.76 0 0 0 -.95 4.86h-4.05zm51 42h-58v-2h58z"/></svg>