<?xml version="1.0" encoding="iso-8859-1"?>
<!-- Generator: Adobe Illustrator 19.0.0, SVG Export Plug-In . SVG Version: 6.00 Build 0)  -->
<svg version="1.1" id="Capa_1" xmlns="http://www.w3.org/2000/svg" xmlns:xlink="http://www.w3.org/1999/xlink" x="0px" y="0px"
	 viewBox="0 0 512 512" style="enable-background:new 0 0 512 512;" xml:space="preserve">
<path style="fill:#FF3F62;" d="M503.772,399.5v64h-312v-79c0-8.28,6.72-15,15-15h267C490.342,369.5,503.772,382.93,503.772,399.5z"
	/>
<path style="fill:#ED204C;" d="M486.973,443.5c-8.53-22.755-30.503-39-56.201-39s-47.671,16.245-56.201,39h-52.598
	c-8.53-22.755-30.503-39-56.201-39s-47.671,16.245-56.201,39h-17.799v20h14.01h119.98h45.02h119.98h13.01v-20H486.973z"/>
<path style="fill:#D4E157;" d="M438.522,254.5c0,22.09-17.91,40-40,40h-125.5v-150c7.6,0,14.5,2.97,19.6,7.83
	c4.19,3.95,7.16,9.18,8.34,15.05c2.26-0.57,4.62-0.88,7.06-0.88c11.46,0,21.33,6.77,25.86,16.52c5.9-3.5,12.78-5.52,20.14-5.52
	c21.09,0,38.31,16.52,39.44,37.33c1.66-0.21,3.34-0.33,5.06-0.33C420.612,214.5,438.522,232.41,438.522,254.5z"/>
<path style="fill:#00E5FF;" d="M411.042,349.5l-26.47-45.12c-3.59-6.12-10.16-9.88-17.25-9.88h-60.55h-48.72
	c-9.92,0-18.35,7.28-19.79,17.1l-5.56,37.9l-2.93,20h77h116L411.042,349.5z"/>
<path style="fill:#C0CA33;" d="M292.622,152.33V294.5h-19.6v-150C280.622,144.5,287.522,147.47,292.622,152.33z"/>
<rect x="32.622" y="111.5" style="fill:#FF80AB;" width="240" height="183"/>
<rect x="112.62" y="177.5" style="fill:#BCAAA4;" width="80" height="117"/>
<g>
	<circle style="fill:#616161;" cx="265.77" cy="464.5" r="40"/>
	<circle style="fill:#616161;" cx="430.77" cy="464.5" r="40"/>
</g>
<g>
	<path style="fill:#FDD844;" d="M227.772,369.5v31h-36v-16c0-8.28,6.72-15,15-15H227.772z"/>
	<path style="fill:#FDD844;" d="M503.772,399.5v1h-34v-31h4C490.342,369.5,503.772,382.93,503.772,399.5z"/>
</g>
<polygon style="fill:#BCAAA4;" points="257.772,17.5 257.772,85.31 217.772,55.39 217.772,17.5 "/>
<polygon style="fill:#A1887F;" points="257.772,60.34 257.772,85.31 217.772,55.39 217.772,30.41 "/>
<polygon style="fill:#B0BEC5;" points="157.772,10.5 22.772,111.5 292.772,111.5 "/>
<path style="fill:#D8D7DA;" d="M417.772,7.5c-22.644,0-41,18.356-41,41l0,0h-53c-8.284,0-15,6.716-15,15s6.716,15,15,15h188v-71
	H417.772z"/>
<path style="fill:#ACABB1;" d="M312.614,53.5c-2.381,2.655-3.842,6.153-3.842,10c0,8.284,6.716,15,15,15h188v-20h-188
	C319.335,58.5,315.361,56.562,312.614,53.5z"/>
<rect x="32.622" y="111.5" style="fill:#FF4081;" width="240" height="20"/>
<rect x="112.62" y="177.5" style="fill:#A1887F;" width="80" height="20"/>
<g>
	<circle style="fill:#D8D7DA;" cx="265.77" cy="464.5" r="15"/>
	<circle style="fill:#D8D7DA;" cx="430.77" cy="464.5" r="15"/>
</g>
<polygon style="fill:#40C4FF;" points="422.772,369.5 229.772,369.5 232.702,349.5 411.042,349.5 "/>
<rect x="492.77" y="287" width="19" height="15"/>
<path d="M323.772,56h60.5v-7.5c0-18.472,15.028-33.5,33.5-33.5h94V0h-94c-24.193,0-44.306,17.805-47.921,41h-46.079
	c-12.406,0-22.5,10.093-22.5,22.5s10.094,22.5,22.5,22.5h188V71h-188c-4.136,0-7.5-3.364-7.5-7.5S319.636,56,323.772,56z"/>
<rect x="419.77" y="110" width="57" height="15"/>
<rect x="346.77" y="110" width="58" height="15"/>
<rect x="414.77" y="145" width="41" height="15"/>
<rect x="470.77" y="145" width="41" height="15"/>
<path d="M233.584,302c-1.35,2.617-2.297,5.479-2.742,8.512L223.292,362h-16.52c-12.407,0-22.5,10.093-22.5,22.5l0,0V471h34.456
	c3.18,23.126,23.058,41,47.044,41s43.864-17.874,47.044-41h70.912c3.18,23.126,23.058,41,47.044,41s43.864-17.874,47.044-41h33.456
	v-71.5l0,0c0-20.678-16.822-37.5-37.5-37.5h-11.5h-35.204l-35.197-60l0,0h85.901v-15h-44.656c7.994-8.504,12.906-19.936,12.906-32.5
	c0-25.71-20.534-46.715-46.063-47.479C395.371,185.754,376.454,170,354.022,170c-5.944,0-11.813,1.127-17.291,3.295
	c-6.726-8.862-17.34-14.295-28.709-14.295c-0.604,0-1.208,0.015-1.811,0.045c-4.61-10.942-14.44-18.956-26.09-21.313V119h35.195
	l-50.045-37.441V10h-55v30.411l-52.5-39.278L0.228,119h24.894v168H0.772v15H233.584 M477.272,377.274
	c0.038,0.006,0.076,0.014,0.114,0.02c0.434,0.07,0.863,0.155,1.288,0.25c0.123,0.027,0.245,0.056,0.368,0.085
	c0.438,0.106,0.873,0.221,1.301,0.352c0.028,0.008,0.056,0.015,0.083,0.024c0.454,0.141,0.899,0.299,1.34,0.468
	c0.113,0.043,0.226,0.089,0.338,0.134c0.369,0.148,0.734,0.304,1.093,0.471c0.075,0.035,0.152,0.067,0.227,0.102
	c0.419,0.2,0.83,0.414,1.234,0.638c0.098,0.055,0.194,0.112,0.292,0.168c0.329,0.189,0.652,0.386,0.97,0.591
	c0.091,0.059,0.183,0.116,0.273,0.175c0.383,0.254,0.758,0.519,1.123,0.796c0.074,0.056,0.145,0.115,0.218,0.172
	c0.302,0.234,0.597,0.476,0.886,0.724c0.093,0.08,0.187,0.16,0.279,0.241c0.343,0.305,0.678,0.617,1.002,0.941
	c0.037,0.037,0.073,0.077,0.11,0.115c0.289,0.294,0.569,0.597,0.841,0.907c0.085,0.096,0.169,0.194,0.253,0.291
	c0.274,0.322,0.541,0.65,0.796,0.986c0.026,0.034,0.053,0.066,0.079,0.1c0.275,0.367,0.536,0.745,0.789,1.129
	c0.069,0.105,0.136,0.212,0.204,0.318c0.206,0.324,0.404,0.654,0.594,0.989c0.044,0.078,0.091,0.155,0.135,0.234
	c0.221,0.403,0.429,0.814,0.626,1.231c0.049,0.104,0.095,0.211,0.143,0.316c0.156,0.344,0.303,0.692,0.442,1.045
	c0.041,0.105,0.084,0.208,0.124,0.314c0.164,0.437,0.316,0.879,0.454,1.328c0.007,0.023,0.013,0.047,0.02,0.071h-18.039
	L477.272,377.274L477.272,377.274z M299.272,302v60h-60.82l7.232-49.314c0.894-6.092,6.211-10.686,12.368-10.686H299.272
	 M314.272,302h53.046l0,0c4.416,0,8.547,2.366,10.781,6.175L409.677,362h-95.404v-60H314.272z M398.522,287h-118V153.39
	c6.567,2.523,11.649,8.266,13.089,15.462l1.549,7.747l7.656-1.95c1.693-0.431,3.445-0.65,5.206-0.65
	c8.144,0,15.624,4.78,19.058,12.179l3.495,7.532l7.138-4.241c4.923-2.924,10.563-4.47,16.31-4.47
	c16.997,0,31.031,13.281,31.949,30.236l0.437,8.046l7.994-1.012c1.439-0.182,2.787-0.271,4.12-0.271c17.921,0,32.5,14.58,32.5,32.5
	S416.443,287,398.522,287 M225.272,25h25v45.337l-25-18.704V25z M157.772,19.867L270.227,104l0,0l0,0l0,0H45.317L157.772,19.867z
	 M123.772,287h-3.651V185h65v102H123.772z M265.122,287h-65V170h-95v117h-65V119h225V287 M199.272,384.5c0-4.136,3.364-7.5,7.5-7.5
	h13.5v16h-21V384.5z M265.772,497c-17.92,0-32.5-14.58-32.5-32.5s14.58-32.5,32.5-32.5c17.921,0,32.5,14.58,32.5,32.5
	S283.693,497,265.772,497z M430.772,497c-17.921,0-32.5-14.58-32.5-32.5s14.579-32.5,32.5-32.5s32.5,14.58,32.5,32.5
	S448.693,497,430.772,497z M462.272,377v31h34v48h-18.777c-4.02-22.147-23.434-39-46.723-39s-42.703,16.853-46.723,39h-71.554
	c-4.02-22.147-23.434-39-46.723-39s-42.703,16.853-46.723,39h-19.777v-48h36v-31l0,0H462.272"/>
<rect x="126.77" y="390" width="40" height="15"/>
<rect x="76.77" y="423" width="90" height="15"/>
<rect x="0.772" y="456" width="15" height="15"/>
<rect x="30.772" y="456" width="136" height="15"/>
<g>
	<path style="fill:#FFFFFF;" d="M247.772,155h-15v-15h15V155z M217.772,155h-130v-15h130V155z M72.772,155h-15v-15h15V155z"/>
	<rect x="57.772" y="170" style="fill:#FFFFFF;" width="30" height="15"/>
	<rect x="57.772" y="199" style="fill:#FFFFFF;" width="30" height="15"/>
	<rect x="57.772" y="228" style="fill:#FFFFFF;" width="30" height="15"/>
	<rect x="217.77" y="170" style="fill:#FFFFFF;" width="30" height="15"/>
	<rect x="217.77" y="199" style="fill:#FFFFFF;" width="30" height="15"/>
	<rect x="217.77" y="228" style="fill:#FFFFFF;" width="30" height="15"/>
	<path style="fill:#FFFFFF;" d="M117.443,87.505l-8.985-12.011l11.993-8.972l8.985,12.011L117.443,87.505z M141.447,69.547
		l-8.985-12.011l20.818-15.575l8.985,12.011L141.447,69.547z"/>
	<path style="fill:#FFFFFF;" d="M342.772,263v-15c4.687,0,8.5-3.813,8.5-8.5s-3.813-8.5-8.5-8.5c-1.213,0-2.402,0.263-3.534,0.783
		l-7.871,3.612l-2.45-8.306c-1.058-3.585-4.407-6.089-8.145-6.089c-4.687,0-8.5,3.813-8.5,8.5h-15c0-12.958,10.542-23.5,23.5-23.5
		c7.808,0,15.002,3.949,19.318,10.153c0.886-0.102,1.78-0.153,2.682-0.153c12.958,0,23.5,10.542,23.5,23.5S355.73,263,342.772,263z"
		/>
	<path style="fill:#FFFFFF;" d="M396.772,406h-60v-15h60V406z M321.772,406h-15v-15h15V406z"/>
	<rect x="326.77" y="420" style="fill:#FFFFFF;" width="50" height="15"/>
	<rect x="443.77" y="32" style="fill:#FFFFFF;" width="68" height="15"/>
	<rect x="409.77" y="32" style="fill:#FFFFFF;" width="16" height="15"/>
</g>
<g>
</g>
<g>
</g>
<g>
</g>
<g>
</g>
<g>
</g>
<g>
</g>
<g>
</g>
<g>
</g>
<g>
</g>
<g>
</g>
<g>
</g>
<g>
</g>
<g>
</g>
<g>
</g>
<g>
</g>
</svg>
