<svg id="Capa_1" enable-background="new 0 0 512 512" height="512" viewBox="0 0 512 512" width="512" xmlns="http://www.w3.org/2000/svg"><g><g><g><g><g><path d="m307.445 161.704c-1.977 0-3.955-.755-5.463-2.263-3.018-3.018-3.018-7.909 0-10.928l43.428-43.428c3.017-3.016 7.909-3.016 10.927 0 3.018 3.018 3.018 7.909 0 10.928l-43.428 43.428c-1.509 1.509-3.486 2.263-5.464 2.263z" fill="#b5adb6"/></g><path d="m366.96 126.637-32.173-32.173c-2.72-2.72-2.72-7.129 0-9.848l14.23-14.23c2.72-2.72 7.129-2.72 9.848 0l32.173 32.173c2.72 2.72 2.72 7.129 0 9.848l-14.23 14.23c-2.72 2.72-7.129 2.72-9.848 0z" fill="#918291"/></g><g><g><path d="m99.476 161.704c-1.977 0-3.955-.755-5.463-2.263l-43.428-43.428c-3.018-3.018-3.018-7.909 0-10.928 3.017-3.016 7.909-3.016 10.927 0l43.428 43.428c3.018 3.018 3.018 7.909 0 10.928-1.509 1.509-3.486 2.263-5.464 2.263z" fill="#b5adb6"/></g><path d="m39.962 126.637 32.173-32.173c2.72-2.72 2.72-7.129 0-9.848l-14.23-14.23c-2.72-2.72-7.129-2.72-9.848 0l-32.173 32.173c-2.72 2.72-2.72 7.129 0 9.848l14.23 14.23c2.719 2.72 7.128 2.72 9.848 0z" fill="#918291"/></g></g><path d="m180.903 55.413h45.115v55.413h-45.115z" fill="#b5adb6"/><circle cx="203.461" cy="308.539" fill="#fd8087" r="203.461"/><path d="m266.092 400.708c0 33.507 12.246 64.151 32.501 87.711 64.431-34.146 108.329-101.881 108.329-179.88 0-14.55-1.54-28.739-4.443-42.425-.59-.008-1.179-.022-1.77-.022-74.347 0-134.617 60.27-134.617 134.616z" fill="#fe646f"/><circle cx="203.461" cy="308.539" fill="#fff" r="156.212"/><path d="m359.673 308.539c0-11.948-1.347-23.58-3.887-34.759-52.256 18.495-89.694 68.336-89.694 126.928 0 16.526 2.984 32.353 8.433 46.98 50.548-25.867 85.148-78.467 85.148-139.149z" fill="#f9f7f8"/><path d="m240.481 55.413h-74.041c-6.258 0-11.332-5.074-11.332-11.332v-32.749c0-6.258 5.074-11.332 11.332-11.332h74.041c6.258 0 11.332 5.074 11.332 11.332v32.749c0 6.258-5.073 11.332-11.332 11.332z" fill="#918291"/><g fill="#b5adb6"><g><path d="m203.461 152.327c-2.591 0-5.166.067-7.726.191v30.091c0 4.268 3.459 7.726 7.726 7.726s7.726-3.459 7.726-7.726v-30.091c-2.56-.125-5.135-.191-7.726-.191z"/><path d="m203.461 426.743c-4.267 0-7.726 3.459-7.726 7.726v30.091c2.56.125 5.135.191 7.726.191s5.166-.067 7.726-.191v-30.09c0-4.268-3.459-7.727-7.726-7.727z"/></g><path d="m47.44 316.266h30.09c4.267 0 7.726-3.459 7.726-7.726s-3.459-7.726-7.726-7.726h-30.09c-.125 2.56-.191 5.135-.191 7.726-.001 2.59.066 5.165.191 7.726z"/><g><path d="m308.32 192.753-21.276 21.276c-3.018 3.018-3.018 7.909 0 10.928 1.509 1.508 3.486 2.263 5.463 2.263s3.955-.755 5.463-2.263l21.277-21.277c-3.461-3.819-7.108-7.466-10.927-10.927z"/><path d="m108.951 392.122-21.277 21.277c3.461 3.819 7.108 7.466 10.927 10.927l21.276-21.276c3.018-3.018 3.018-7.909 0-10.928-3.016-3.016-7.909-3.016-10.926 0z"/></g><path d="m87.675 203.68 21.277 21.277c1.509 1.508 3.486 2.263 5.463 2.263s3.955-.755 5.463-2.263c3.018-3.018 3.018-7.909 0-10.928l-21.276-21.276c-3.82 3.461-7.467 7.108-10.927 10.927z"/></g><g><g><path d="m271.008 356.493c-9.051 14.68-26.405 22.073-43.238 18.322-18.921-4.215-39.494-15.685-57.196-33.387-17.705-17.705-29.174-38.278-33.389-57.2-3.75-16.833 3.642-34.188 18.322-43.239 3.291-2.029 7.544-1.531 10.278 1.202l20.303 20.303c3.809 3.809 3.064 10.174-1.521 13.001l-8.296 5.115c-3.482 2.147-4.9 6.5-3.337 10.28 3.392 8.203 9.521 19.557 20.491 30.111 9.812 9.44 20.04 14.914 27.716 18.081 3.768 1.554 8.108.121 10.247-3.349l5.117-8.299c2.827-4.585 9.193-5.33 13.001-1.521l20.3 20.3c2.734 2.734 3.231 6.987 1.202 10.278z" fill="#b5adb6"/></g></g></g><g><circle cx="400.708" cy="400.708" fill="#7acaa6" r="111.292"/><path d="m400.708 289.417c-5.244 0-10.402.371-15.453 1.073 54.149 7.523 95.839 53.998 95.839 110.219s-41.69 102.696-95.839 110.219c5.051.702 10.208 1.073 15.453 1.073 61.465-.001 111.292-49.828 111.292-111.293s-49.827-111.291-111.292-111.291z" fill="#57be92"/><path d="m332.434 376.57 35.657-35.657c3.88-3.88 10.515-1.132 10.515 4.355v8.958c0 2.052 1.672 3.722 3.724 3.694.34-.005.68-.007 1.021-.007 41.099 0 74.417 33.318 74.417 74.417 0 4.036-.32 7.999-.944 11.863-3.232-24.087-23.861-42.663-48.835-42.663-10.312 0-19.882 3.168-27.793 8.58-1 .684-1.589 1.827-1.589 3.039v9.821c0 5.487-6.634 8.235-10.515 4.355l-35.657-35.657c-4.171-4.169-4.171-10.929-.001-15.098z" fill="#fff"/></g><g fill="#b5adb6"><circle cx="217.029" cy="251.264" r="7.726"/><circle cx="238.883" cy="273.117" r="7.726"/><circle cx="260.736" cy="294.971" r="7.726"/></g></g></svg>